<svg xmlns="http://www.w3.org/2000/svg" fill="none" stroke="currentColor" stroke-width="2" viewBox="0 0 24 24" width="22" height="22" class="text-text-secondary dark:text-text-secondary hover:text-text-primary dark:hover:text-text-primary">
  <path d="M16 11c1.66 0 2.99-1.34 2.99-3S17.66 5 16 5s-3 1.34-3 3 1.34 3 3 3zm-8 0c1.66 0 2.99-1.34 2.99-3S9.66 5 8 5s-3 1.34-3 3 1.34 3 3 3zm0 2c-2.33 0-7 1.17-7 3.5V19h14v-2.5c0-2.33-4.67-3.5-7-3.5zm8 0c-.29 0-.62.02-.97.05 1.16.84 1.97 2.01 1.97 3.45V19h6v-2.5c0-2.33-4.67-3.5-7-3.5z"/>
</svg>